<svg id="Outline" height="512" viewBox="0 0 512 512" width="512" xmlns="http://www.w3.org/2000/svg"><path d="m448 384h-16v-16a8 8 0 0 0 -16 0v16h-16a8 8 0 0 0 0 16h16v16a8 8 0 0 0 16 0v-16h16a8 8 0 0 0 0-16z"/><path d="m488 344v-232a40.045 40.045 0 0 0 -40-40h-16v-8a24 24 0 0 0 -48 0v8h-32v-8a24 24 0 0 0 -48 0v8h-32v-8a24 24 0 0 0 -48 0v8h-32v-8a24 24 0 0 0 -48 0v8h-32v-8a24 24 0 0 0 -48 0v8h-16a40.045 40.045 0 0 0 -40 40v304a40.045 40.045 0 0 0 40 40h328v-.043a79.956 79.956 0 0 0 111.956-111.957zm-88-280a8 8 0 0 1 16 0v32a8 8 0 0 1 -16 0zm-80 0a8 8 0 0 1 16 0v32a8 8 0 0 1 -16 0zm-80 0a8 8 0 0 1 16 0v32a8 8 0 0 1 -16 0zm-80 0a8 8 0 0 1 16 0v32a8 8 0 0 1 -16 0zm-80 0a8 8 0 0 1 16 0v32a8 8 0 0 1 -16 0zm-32 24h16v8a24 24 0 0 0 48 0v-8h32v8a24 24 0 0 0 48 0v-8h32v8a24 24 0 0 0 48 0v-8h32v8a24 24 0 0 0 48 0v-8h32v8a24 24 0 0 0 48 0v-8h16a24.028 24.028 0 0 1 24 24v24h-448v-24a24.028 24.028 0 0 1 24-24zm-24 328v-264h448v176.043a79.669 79.669 0 0 0 -32-14.433v-41.61a8 8 0 0 0 -8-8h-48a8 8 0 0 0 -8 8v48a7.974 7.974 0 0 0 2.78 6.053 80.624 80.624 0 0 0 -20.727 20.727 7.974 7.974 0 0 0 -6.053-2.78h-48a8 8 0 0 0 -8 8v48a8 8 0 0 0 8 8h41.61a79.657 79.657 0 0 0 14.434 32h-312.044a24.028 24.028 0 0 1 -24-24zm368-104v-32h32v32zm-48 80h-32v-32h32zm80 64a64 64 0 1 1 64-64 64.072 64.072 0 0 1 -64 64z"/><path d="m112 184h-48a8 8 0 0 0 -8 8v48a8 8 0 0 0 8 8h48a8 8 0 0 0 8-8v-48a8 8 0 0 0 -8-8zm-8 48h-32v-32h32z"/><path d="m192 184h-48a8 8 0 0 0 -8 8v48a8 8 0 0 0 8 8h48a8 8 0 0 0 8-8v-48a8 8 0 0 0 -8-8zm-8 48h-32v-32h32z"/><path d="m272 184h-48a8 8 0 0 0 -8 8v48a8 8 0 0 0 8 8h48a8 8 0 0 0 8-8v-48a8 8 0 0 0 -8-8zm-8 48h-32v-32h32z"/><path d="m304 248h48a8 8 0 0 0 8-8v-48a8 8 0 0 0 -8-8h-48a8 8 0 0 0 -8 8v48a8 8 0 0 0 8 8zm8-48h32v32h-32z"/><path d="m384 248h48a8 8 0 0 0 8-8v-48a8 8 0 0 0 -8-8h-48a8 8 0 0 0 -8 8v48a8 8 0 0 0 8 8zm8-48h32v32h-32z"/><path d="m112 264h-48a8 8 0 0 0 -8 8v48a8 8 0 0 0 8 8h48a8 8 0 0 0 8-8v-48a8 8 0 0 0 -8-8zm-8 48h-32v-32h32z"/><path d="m192 264h-48a8 8 0 0 0 -8 8v48a8 8 0 0 0 8 8h48a8 8 0 0 0 8-8v-48a8 8 0 0 0 -8-8zm-8 48h-32v-32h32z"/><path d="m272 264h-48a8 8 0 0 0 -8 8v48a8 8 0 0 0 8 8h48a8 8 0 0 0 8-8v-48a8 8 0 0 0 -8-8zm-8 48h-32v-32h32z"/><path d="m304 328h48a8 8 0 0 0 8-8v-48a8 8 0 0 0 -8-8h-48a8 8 0 0 0 -8 8v48a8 8 0 0 0 8 8zm8-48h32v32h-32z"/><path d="m112 344h-48a8 8 0 0 0 -8 8v48a8 8 0 0 0 8 8h48a8 8 0 0 0 8-8v-48a8 8 0 0 0 -8-8zm-8 48h-32v-32h32z"/><path d="m192 344h-48a8 8 0 0 0 -8 8v48a8 8 0 0 0 8 8h48a8 8 0 0 0 8-8v-48a8 8 0 0 0 -8-8zm-8 48h-32v-32h32z"/><path d="m272 344h-48a8 8 0 0 0 -8 8v48a8 8 0 0 0 8 8h48a8 8 0 0 0 8-8v-48a8 8 0 0 0 -8-8zm-8 48h-32v-32h32z"/></svg>